<svg xmlns="http://www.w3.org/2000/svg" version="1.1" xmlns:xlink="http://www.w3.org/1999/xlink" width="200" height="200"><svg xmlns="http://www.w3.org/2000/svg" version="1.1" xmlns:xlink="http://www.w3.org/1999/xlink" viewBox="0 0 200 200"><rect width="200" height="200" fill="url('#gradient')"></rect><defs><linearGradient id="SvgjsLinearGradient1006" gradientTransform="rotate(291 0.5 0.5)"><stop offset="0%" stop-color="#fa7439"></stop><stop offset="100%" stop-color="#eb2e40"></stop></linearGradient></defs><g><g fill="#7eea47" transform="matrix(8.553132250580047,0,0,8.553132250580047,1.895849908864136,146.78437822434853)" stroke="#5ed03e" stroke-width="0.2"><path d="M10.73-5.36L10.73-5.21Q10.73-2.74 9.62-1.27Q8.52 0.20 6.63 0.20L6.63 0.20Q5.18 0.20 4.24-0.87L4.24-0.87L4.24 4.06L0.95 4.06L0.95-10.57L4.02-10.57L4.12-9.59Q5.07-10.76 6.61-10.76L6.61-10.76Q8.56-10.76 9.65-9.32Q10.73-7.88 10.73-5.36L10.73-5.36ZM7.44-5.06L7.44-5.41Q7.44-8.22 5.80-8.22L5.80-8.22Q4.63-8.22 4.24-7.38L4.24-7.38L4.24-3.22Q4.67-2.34 5.82-2.34L5.82-2.34Q7.39-2.34 7.44-5.06L7.44-5.06ZM21.99-5.36L21.99-5.20Q21.99-2.60 20.92-1.20Q19.84 0.20 17.89 0.20L17.89 0.20Q16.28 0.20 15.29-1.08L15.29-1.08L15.16 0L12.21 0L12.21-15L15.50-15L15.50-9.72Q16.42-10.76 17.87-10.76L17.87-10.76Q19.84-10.76 20.92-9.35Q21.99-7.93 21.99-5.36L21.99-5.36ZM18.69-5.40L18.69-5.40Q18.69-6.92 18.29-7.57Q17.88-8.22 17.04-8.22L17.04-8.22Q15.93-8.22 15.50-7.37L15.50-7.37L15.50-3.17Q15.92-2.33 17.06-2.33L17.06-2.33Q18.22-2.33 18.54-3.47L18.54-3.47Q18.69-4.02 18.69-5.40Z"></path></g></g></svg><style>@media (prefers-color-scheme: light) { :root { filter: none; } }
@media (prefers-color-scheme: dark) { :root { filter: none; } }
</style></svg>